<?xml version="1.0" standalone="no"?>
<!DOCTYPE svg PUBLIC "-//W3C//DTD SVG 20010904//EN"
 "http://www.w3.org/TR/2001/REC-SVG-20010904/DTD/svg10.dtd">
<svg version="1.0" xmlns="http://www.w3.org/2000/svg"
 width="1244.000000pt" height="1102.000000pt" viewBox="0 0 1244.000000 1102.000000"
 preserveAspectRatio="xMidYMid meet">

<g transform="translate(0.000000,1102.000000) scale(0.100000,-0.100000)"
fill="#000000" stroke="none">
<path d="M8016 10321 c-7 -10 9 -24 89 -76 73 -48 425 -394 425 -417 0 -25 0
-25 -225 -88 -38 -11 -140 -47 -182 -66 -18 -8 -48 -20 -65 -28 -18 -8 -55
-23 -83 -34 -27 -11 -77 -32 -110 -47 -33 -15 -76 -34 -95 -42 -69 -29 -432
-205 -440 -213 -3 -3 -30 -18 -60 -34 -93 -49 -143 -77 -186 -107 -24 -16 -45
-29 -48 -29 -18 0 -461 -305 -550 -379 -46 -37 -262 -238 -282 -261 -7 -8 -49
-60 -95 -115 -45 -55 -97 -118 -115 -140 -154 -186 -270 -351 -434 -620 -115
-188 -183 -308 -430 -755 -163 -295 -242 -412 -353 -524 -91 -92 -137 -120
-159 -98 -6 6 -5 19 6 40 8 16 12 32 9 36 -12 12 -53 6 -120 -20 -205 -77
-255 -88 -266 -61 -8 22 113 201 188 278 98 101 183 163 312 226 l112 55 6 46
c28 228 94 370 243 524 72 74 183 158 229 172 34 11 63 54 63 93 0 46 53 204
92 273 78 137 201 263 374 380 113 77 112 76 158 211 35 98 108 226 167 292
26 28 72 81 103 117 113 131 324 275 524 356 59 24 112 46 117 48 15 7 -14 24
-59 37 -37 10 -172 27 -381 49 -49 5 -130 14 -180 19 -49 6 -124 13 -165 16
-41 4 -113 13 -158 21 -101 17 -423 18 -822 4 -424 -16 -691 -42 -975 -97 -44
-9 -94 -18 -112 -20 -18 -3 -37 -11 -43 -18 -21 -25 307 -38 528 -21 137 11
137 7 20 -85 -127 -100 -297 -275 -392 -402 -47 -63 -86 -118 -86 -120 0 -3
-17 -34 -38 -68 -75 -126 -152 -311 -187 -453 -30 -118 -35 -174 -49 -499 -14
-322 -20 -376 -68 -597 -27 -132 -89 -325 -142 -445 -28 -64 -141 -283 -179
-348 -49 -83 -86 -124 -120 -133 -51 -12 -57 -3 -57 96 0 49 -3 90 -6 90 -3 0
-70 -65 -148 -144 -135 -137 -143 -144 -197 -156 -31 -7 -61 -10 -66 -7 -6 4
-13 39 -16 78 -6 73 -14 94 -32 81 -6 -4 -36 -39 -67 -77 -94 -117 -176 -189
-241 -213 -32 -12 -62 -22 -67 -22 -13 0 -32 38 -25 50 11 18 -7 130 -20 130
-7 0 -43 -41 -80 -91 -37 -51 -88 -114 -113 -142 -56 -60 -142 -117 -175 -117
-23 0 -25 4 -31 73 -13 132 -23 137 -86 40 -99 -151 -216 -278 -280 -302 -19
-7 -42 -17 -50 -21 -8 -5 -58 -32 -110 -61 -177 -97 -205 -112 -315 -177 -169
-99 -285 -190 -430 -338 -84 -85 -138 -121 -305 -203 -134 -66 -163 -90 -179
-149 -20 -68 -15 -84 44 -135 l54 -47 12 40 c21 68 75 91 105 45 l17 -26 18
30 c28 46 52 53 173 55 94 1 110 -1 108 -14 -2 -8 -10 -57 -18 -109 -20 -130
-28 -145 -82 -149 -28 -2 -42 -7 -39 -15 8 -22 -13 -47 -39 -47 -14 0 -39 9
-56 21 -16 12 -32 18 -35 15 -12 -11 17 -82 43 -107 22 -20 35 -24 84 -23 112
2 232 83 293 198 17 33 57 86 87 116 45 46 71 62 140 89 216 84 454 241 693
458 144 131 430 240 734 278 182 23 611 16 620 -10 2 -6 -26 -40 -62 -77 -81
-83 -156 -198 -251 -383 -85 -163 -85 -163 -263 -244 -200 -92 -297 -161 -332
-236 -26 -56 -24 -195 2 -195 5 0 9 16 9 36 0 47 35 118 66 135 32 17 42 5 46
-51 l3 -45 33 62 c63 115 96 132 105 54 6 -51 50 -151 66 -151 5 0 9 35 8 79
-1 71 1 82 27 120 42 60 90 95 210 151 112 53 123 63 146 149 18 67 45 96 134
139 44 22 108 63 141 91 33 28 75 63 94 78 l34 27 28 -33 c15 -19 47 -72 71
-119 37 -74 43 -94 46 -161 3 -70 1 -79 -25 -117 -46 -68 -108 -111 -288 -201
-261 -131 -398 -228 -464 -328 -23 -35 -26 -50 -26 -125 0 -72 4 -92 24 -128
14 -23 28 -42 31 -42 4 0 8 27 8 59 1 81 16 127 57 184 48 64 62 61 67 -12 3
-44 12 -70 34 -103 l29 -43 6 70 c7 85 16 115 34 115 8 0 21 -13 29 -29 25
-47 124 -116 142 -98 3 3 -5 24 -17 48 -28 56 -36 152 -16 200 49 119 227 220
505 289 94 23 119 33 147 60 40 39 66 97 90 200 28 120 30 123 69 117 97 -16
266 -108 399 -217 92 -76 276 -265 306 -314 14 -23 13 -27 -4 -45 -10 -12 -23
-21 -28 -21 -32 0 -642 -377 -684 -422 -41 -44 -108 -166 -260 -470 -182 -362
-179 -359 -348 -414 -166 -54 -245 -102 -295 -181 -42 -65 -37 -72 14 -25 49
45 99 73 164 93 61 18 71 3 33 -52 -23 -34 -32 -59 -36 -109 -7 -72 -4 -71 48
10 28 43 113 102 187 129 121 45 143 38 111 -34 -25 -58 -29 -180 -7 -211 14
-18 15 -18 25 9 6 16 11 31 11 34 0 3 16 23 36 45 20 22 42 55 50 74 18 43 17
147 -1 199 -28 77 -19 108 61 215 44 58 115 126 182 174 23 16 55 47 72 68 30
37 90 148 90 166 0 18 40 99 54 111 9 8 73 12 187 14 l174 2 -3 -25 c-2 -14
-6 -42 -9 -63 -7 -50 15 -102 87 -201 138 -191 354 -581 366 -663 11 -75 -2
-111 -64 -173 -31 -31 -91 -79 -132 -107 -151 -102 -209 -174 -226 -282 -8
-52 6 -53 30 -3 34 70 86 132 112 132 24 0 24 -2 24 -90 0 -82 3 -95 27 -133
l28 -42 5 76 c4 45 12 86 22 101 10 15 68 52 139 88 67 35 145 81 173 102 28
21 56 38 62 38 8 0 11 -36 10 -122 -1 -122 -1 -123 32 -180 18 -32 37 -60 41
-62 4 -3 7 30 6 72 0 67 5 89 37 167 21 50 40 115 43 145 12 103 -35 192 -138
264 -59 40 -108 108 -132 180 -9 27 -27 130 -40 230 -23 177 -49 281 -96 380
-11 25 -18 50 -14 56 4 7 33 8 83 4 88 -7 214 11 356 52 l88 25 62 -32 c126
-65 281 -209 372 -345 78 -116 119 -228 141 -385 16 -112 16 -128 -1 -261 -40
-331 -154 -580 -366 -802 -212 -222 -484 -369 -870 -469 -162 -41 -334 -72
-490 -87 -407 -39 -831 -161 -1058 -304 -106 -66 -108 6 -5 157 30 43 52 81
50 84 -7 6 -140 -51 -207 -89 -141 -79 -311 -231 -414 -371 -69 -94 -206 -320
-206 -342 0 -12 21 -3 81 33 35 21 94 50 130 65 171 67 526 147 659 147 116 0
119 7 20 56 -98 49 -115 64 -105 93 7 23 95 91 118 91 14 0 37 -72 37 -115 0
-32 29 -12 55 38 35 66 83 132 132 179 41 40 111 74 123 61 5 -4 12 -44 17
-87 4 -44 13 -81 18 -83 6 -1 22 17 38 41 35 56 151 171 202 201 22 13 61 26
86 30 57 8 71 -7 58 -64 -10 -44 -12 -115 -2 -124 3 -4 34 20 68 54 34 33 98
87 143 119 70 50 91 60 152 70 83 14 104 9 97 -23 -11 -40 -20 -157 -13 -157
4 0 39 28 79 63 152 132 219 177 305 202 66 20 72 12 65 -94 -3 -51 -2 -91 4
-94 5 -3 76 72 159 166 146 168 204 217 238 204 9 -4 16 -18 16 -32 0 -40 31
-165 40 -165 5 0 30 42 56 93 92 182 223 357 258 344 8 -3 20 -25 26 -49 6
-24 17 -59 25 -78 7 -19 16 -43 19 -52 9 -30 33 -20 40 15 10 51 145 459 157
474 20 23 33 14 68 -47 40 -69 98 -131 104 -109 3 8 12 129 22 269 9 140 19
258 21 262 12 18 35 4 108 -67 42 -41 82 -75 88 -75 6 0 8 14 3 38 -4 20 -9
137 -11 258 -4 277 -3 279 84 208 64 -52 129 -91 137 -82 3 2 -1 24 -9 49
-112 354 -141 461 -132 484 8 21 33 19 67 -5 25 -19 130 -60 151 -60 18 0 5
34 -45 117 -30 48 -79 142 -111 208 -31 66 -61 128 -66 137 -13 23 -13 45 0
53 5 3 46 -5 90 -20 85 -26 140 -32 140 -15 0 6 -32 50 -71 98 -80 98 -215
306 -225 346 -9 36 11 41 79 21 31 -9 80 -15 110 -13 l55 3 -85 90 c-85 90
-240 280 -262 322 -17 33 -1 38 121 38 64 0 109 4 110 10 1 6 -38 40 -87 78
-115 86 -282 245 -287 272 -8 38 1 45 58 45 69 0 144 18 144 35 0 7 -30 30
-67 51 -125 69 -360 230 -377 256 -14 23 -9 26 75 47 79 19 131 40 136 56 1 6
-57 32 -130 59 -132 49 -248 101 -289 131 -13 8 -32 15 -45 15 -58 0 -23 52
61 89 67 31 95 56 79 72 -6 6 -40 14 -76 19 -115 17 -251 50 -267 66 -13 14
-11 19 22 46 51 42 173 96 260 114 84 18 334 14 402 -6 35 -10 42 -9 65 9 72
58 266 182 342 218 107 53 238 97 366 124 181 38 443 23 612 -35 41 -14 75
-26 76 -26 1 0 48 46 106 103 198 197 360 288 631 357 243 62 636 35 933 -64
59 -20 116 -36 127 -36 11 0 45 24 76 53 315 293 748 491 1211 553 123 16 567
19 706 4 184 -19 559 -99 684 -146 61 -23 101 -30 101 -18 0 3 -31 68 -70 145
-461 923 -1195 1670 -2285 2324 -473 284 -1049 552 -1754 816 -118 44 -108 42
-115 30z"/>
</g>
</svg>
